<svg version="1.1" viewBox="0.0 0.0 960.0 540.0" fill="none" stroke="none" stroke-linecap="square" stroke-miterlimit="10" xmlns:xlink="http://www.w3.org/1999/xlink" xmlns="http://www.w3.org/2000/svg"><clipPath id="p.0"><path d="m0 0l960.0 0l0 540.0l-960.0 0l0 -540.0z" clip-rule="nonzero"/></clipPath><g clip-path="url(#p.0)"><path fill="#ffffff" d="m0 0l960.0 0l0 540.0l-960.0 0z" fill-rule="evenodd"/><path fill="#1366ad" d="m421.1551 59.577427l104.28662 0l0 55.216717c-52.14334 0 -52.14334 21.03859 -104.28662 9.0848465z" fill-rule="evenodd"/><path fill="#1366ad" d="m295.8522 59.59701l82.04031 0l0 88.08305c-41.020172 0 -41.020172 33.56125 -82.04031 14.492355z" fill-rule="evenodd"/><path fill="#3ec75c" d="m160.92061 59.577427l63.1389 0l0 59.5995c-31.569458 0 -31.569458 22.708511 -63.1389 9.805954z" fill-rule="evenodd"/><path fill="#1366ad" d="m85.43307 59.577427l82.04725 0l0 219.3071l-82.04725 0z" fill-rule="evenodd"/><path fill="#fd4a4a" d="m501.2914 59.577427l82.04721 0l0 219.3071l-82.04721 0z" fill-rule="evenodd"/><path fill="#3ec75c" d="m362.67197 59.577427l82.04724 0l0 378.64566l-82.04724 0z" fill-rule="evenodd"/><path fill="#fd4a4a" d="m224.05252 59.577427l82.04724 0l0 231.52756l-82.04724 0z" fill-rule="evenodd"/><path fill="#fd4a4a" d="m224.05252 285.00256l0 0c0 -7.334961 5.9461517 -13.281128 13.281097 -13.281128l55.485046 0l0 0c3.5223694 0 6.9004517 1.3992615 9.391144 3.8899536c2.4906921 2.4906921 3.8899536 5.868805 3.8899536 9.391174l0 53.122833c0 7.3349304 -5.946167 13.281097 -13.281097 13.281097l-55.485046 0c-7.3349457 0 -13.281097 -5.946167 -13.281097 -13.281097z" fill-rule="evenodd"/><path fill="#fd4a4a" d="m501.2914 249.46895l0 0c0 -7.3349457 5.9461365 -13.281097 13.281097 -13.281097l55.485046 0l0 0c3.5223389 0 6.9004517 1.3992462 9.391113 3.8899384c2.4907227 2.4906921 3.8899536 5.8687897 3.8899536 9.391159l0 53.122818c0 7.334961 -5.946106 13.281128 -13.281067 13.281128l-55.485046 0c-7.334961 0 -13.281097 -5.946167 -13.281097 -13.281128z" fill-rule="evenodd"/><path fill="#3ec75c" d="m362.67197 407.41162l0 0c0 -7.3349304 5.9461365 -13.281097 13.281097 -13.281097l55.485046 0l0 0c3.5223389 0 6.9004517 1.3992615 9.391144 3.8899536c2.4906921 2.4906921 3.8899536 5.8687744 3.8899536 9.391144l0 53.122833c0 7.334961 -5.946167 13.281097 -13.281097 13.281097l-55.485046 0c-7.334961 0 -13.281097 -5.9461365 -13.281097 -13.281097z" fill-rule="evenodd"/><path fill="#1366ad" d="m85.43307 229.3379l0 0c0 -7.334961 5.9461594 -13.281113 13.281113 -13.281113l55.485023 0l0 0c3.5223694 0 6.900482 1.3992615 9.391159 3.8899536c2.4906921 2.4906921 3.8899536 5.8687897 3.8899536 9.391159l0 53.122818c0 7.334961 -5.9461517 13.281128 -13.281113 13.281128l-55.485023 0c-7.3349533 0 -13.281113 -5.946167 -13.281113 -13.281128z" fill-rule="evenodd"/><path fill="#1366ad" d="m94.526115 340.39767l0 0c0 -5.47937 4.343193 -9.921265 9.70079 -9.921265l0 0c2.5728073 0 5.0402374 1.0452576 6.8594894 2.9058533c1.819252 1.8606262 2.8412933 4.3841248 2.8412933 7.0154114l0 0c0 5.4793396 -4.3431854 9.921265 -9.700783 9.921265l0 0c-5.3575974 0 -9.70079 -4.441925 -9.70079 -9.921265z" fill-rule="evenodd"/><path fill="#3ec75c" d="m134.1057 382.8967l0 0c0 -5.47937 4.3432007 -9.921265 9.70079 -9.921265l0 0c2.572815 0 5.0402374 1.0452881 6.859497 2.9058838c1.8192444 1.8605957 2.8412933 4.384094 2.8412933 7.015381l0 0c0 5.47937 -4.3431854 9.921265 -9.70079 9.921265l0 0c-5.3575897 0 -9.70079 -4.4418945 -9.70079 -9.921265z" fill-rule="evenodd"/><path fill="#fd4a4a" d="m267.93353 372.813l0 0c0 -5.47937 4.34317 -9.921265 9.700775 -9.921265l0 0c2.572815 0 5.0402527 1.0452881 6.859497 2.9058838c1.8192444 1.8605957 2.841278 4.384094 2.841278 7.015381l0 0c0 5.47937 -4.34317 9.921265 -9.700775 9.921265l0 0c-5.357605 0 -9.700775 -4.4418945 -9.700775 -9.921265z" fill-rule="evenodd"/><path fill="#fd4a4a" d="m217.99806 414.2502l0 0c0 -5.47937 4.3431854 -9.921265 9.70079 -9.921265l0 0c2.5727997 0 5.0402374 1.0452881 6.859482 2.9058838c1.8192596 1.8605957 2.8412933 4.384094 2.8412933 7.015381l0 0c0 5.47937 -4.3431854 9.921265 -9.700775 9.921265l0 0c-5.357605 0 -9.70079 -4.4418945 -9.70079 -9.921265z" fill-rule="evenodd"/><path fill="#3ec75c" d="m367.535 509.68732l0 0c0 -5.4793396 4.3432007 -9.921265 9.700775 -9.921265l0 0c2.572815 0 5.0402527 1.0452881 6.859497 2.9058838c1.8192444 1.8605957 2.8413086 4.384094 2.8413086 7.015381l0 0c0 5.47937 -4.3432007 9.921265 -9.700806 9.921265l0 0c-5.3575745 0 -9.700775 -4.4418945 -9.700775 -9.921265z" fill-rule="evenodd"/><path fill="#1366ad" d="m463.59796 433.96716l0 0c0 -5.47937 4.34317 -9.921265 9.700775 -9.921265l0 0c2.572815 0 5.0402527 1.0452881 6.859497 2.9058838c1.8192444 1.8605957 2.841278 4.384094 2.841278 7.015381l0 0c0 5.47937 -4.34317 9.921265 -9.700775 9.921265l0 0c-5.357605 0 -9.700775 -4.4418945 -9.700775 -9.921265z" fill-rule="evenodd"/><path fill="#fd4a4a" d="m520.0521 360.24194l0 0c0 -5.47937 4.3431396 -9.921265 9.700745 -9.921265l0 0c2.572815 0 5.040283 1.0452576 6.859497 2.9058533c1.8192749 1.8605957 2.8413086 4.3841248 2.8413086 7.0154114l0 0c0 5.4793396 -4.3432007 9.921234 -9.700806 9.921234l0 0c-5.357605 0 -9.700745 -4.4418945 -9.700745 -9.921234z" fill-rule="evenodd"/></g></svg>